HIERARCHY
ROOT Hips
{
	OFFSET 0.000000 0.000000 0.000000 
	CHANNELS 6 Xposition Yposition Zposition Zrotation Yrotation Xrotation
	JOINT LeftUpLeg
	{
		OFFSET 1.363060 -1.794630 0.839290 
		CHANNELS 3 Zrotation Yrotation Xrotation
		JOINT LeftLeg
		{
			OFFSET 2.448110 -6.726130 0.000000 
			CHANNELS 3 Zrotation Yrotation Xrotation
			JOINT LeftFoot
			{
				OFFSET 2.562200 -7.039590 0.000000 
				CHANNELS 3 Zrotation Yrotation Xrotation
				JOINT LeftToeBase
				{
					OFFSET 0.157640 -0.433110 2.322550 
					CHANNELS 3 Zrotation Yrotation Xrotation
					End Site
					{
						OFFSET 0.000000 0.000000 0.000000 
					}
				}
			}
		}
	}
	JOINT RightUpLeg
	{
		OFFSET -1.305520 -1.794630 0.839290 
		CHANNELS 3 Zrotation Yrotation Xrotation
		JOINT RightLeg
		{
			OFFSET -2.542530 -6.985550 0.000000 
			CHANNELS 3 Zrotation Yrotation Xrotation
			JOINT RightFoot
			{
				OFFSET -2.568260 -7.056230 0.000000 
				CHANNELS 3 Zrotation Yrotation Xrotation
				JOINT RightToeBase
				{
					OFFSET -0.164730 -0.452590 2.363150 
					CHANNELS 3 Zrotation Yrotation Xrotation
					End Site
					{
						OFFSET 0.000000 0.000000 0.000000 
					}
				}
			}
		}
	}
	JOINT Spine
	{
		OFFSET 0.028270 2.035590 -0.193380 
		CHANNELS 3 Zrotation Yrotation Xrotation
		JOINT Spine1
		{
			OFFSET 0.056720 2.048850 -0.042750 
			CHANNELS 3 Zrotation Yrotation Xrotation
			JOINT Neck1
			{
				OFFSET -0.054170 1.746240 0.172020 
				CHANNELS 3 Zrotation Yrotation Xrotation
				JOINT Head
				{
					OFFSET 0.104070 1.761360 -0.123970 
					CHANNELS 3 Zrotation Yrotation Xrotation
					End Site
					{
						OFFSET 0.000000 0.000000 0.000000 
					}
				}
			}
			JOINT LeftArm
			{
				OFFSET 3.362410 1.200890 -0.311210 
				CHANNELS 3 Zrotation Yrotation Xrotation
				JOINT LeftForeArm
				{
					OFFSET 4.983000 -0.000000 -0.000000 
					CHANNELS 3 Zrotation Yrotation Xrotation
					JOINT LeftHand
					{
						OFFSET 3.483560 -0.000000 -0.000000 
						CHANNELS 3 Zrotation Yrotation Xrotation
						JOINT LeftHandIndex1
						{
							OFFSET 0.715260 -0.000000 -0.000000 
							CHANNELS 3 Zrotation Yrotation Xrotation
							End Site
							{
								OFFSET 0.000000 0.000000 0.000000 
							}
						}
					}
				}
			}
			JOINT RightArm
			{
				OFFSET -3.136600 1.374050 -0.404650 
				CHANNELS 3 Zrotation Yrotation Xrotation
				JOINT RightForeArm
				{
					OFFSET -5.241900 -0.000000 -0.000000 
					CHANNELS 3 Zrotation Yrotation Xrotation
					JOINT RightHand
					{
						OFFSET -3.444170 -0.000000 -0.000000 
						CHANNELS 3 Zrotation Yrotation Xrotation
						JOINT RightHandIndex1
						{
							OFFSET -0.622530 -0.000000 -0.000000 
							CHANNELS 3 Zrotation Yrotation Xrotation
							End Site
							{
								OFFSET 0.000000 0.000000 0.000000 
							}
						}
					}
				}
			}
		}
	}
}
MOTION
Frames: 9
Frame Time: 0.041667
17.527121 18.242153 0.180346 103.963943 -88.487804 -85.844415 -7.288756 -1.829417 -30.650795 1.156614 9.625828 29.946352 1.550857 -0.231486 4.740704 0.099700 -2.036600 -5.606700 0.909133 11.697130 -26.255849 -1.152930 -9.820238 30.283503 -2.979329 12.900363 9.639132 -3.851900 -11.960700 35.593000 2.532940 0.682498 -4.805235 0.032987 0.252368 4.535484 1.208248 -0.891138 19.707196 1.117000 -0.760900 8.652000 -74.216153 -2.521929 15.203698 18.929674 -25.443153 -4.300645 0.648110 -1.222322 -12.367559 -7.125000 0.000000 0.000000 79.465169 -4.846044 13.571579 -19.430735 26.959600 -5.982838 0.530228 -0.384965 14.980762 7.125000 0.000000 0.000000 
17.514822 18.249613 0.208875 103.098687 -88.571147 -85.006142 -7.293743 -1.771828 -30.550541 1.121132 9.593231 29.822342 1.571400 -0.263003 4.841229 0.095200 -1.989700 -5.477200 0.881499 11.695971 -26.113985 -1.114042 -9.772226 30.128714 -3.000314 12.862069 9.637532 -3.872200 -11.988400 35.690800 2.401487 0.699894 -4.811795 -0.133512 0.254544 4.521031 1.396688 -0.930641 19.913808 1.157900 -0.759500 8.721700 -74.868459 -2.418887 15.581605 18.686242 -25.069310 -4.179198 0.658504 -1.239514 -12.258001 -7.125000 0.000000 0.000000 79.565257 -4.976988 13.959771 -19.234866 26.694349 -5.861884 0.542970 -0.415895 14.930025 7.125000 0.000000 0.000000 
17.502927 18.256367 0.233573 101.057618 -88.685587 -83.004555 -7.219292 -1.862853 -30.404652 1.101308 9.577927 29.750630 1.592147 -0.298903 4.830511 0.081000 -1.836100 -5.053000 0.869265 11.772648 -25.933446 -1.079239 -9.719385 29.978153 -3.023301 12.825535 9.500153 -3.863500 -11.976500 35.649000 2.338504 0.713607 -4.796508 -0.223541 0.258575 4.515313 1.551987 -0.999429 20.083020 1.187700 -0.775100 8.792600 -75.515017 -2.344452 16.025668 18.478829 -24.740908 -4.073844 0.662021 -1.255678 -12.133294 -7.125000 0.000000 0.000000 79.537087 -5.040047 14.554063 -19.010191 26.394580 -5.726366 0.556842 -0.451278 14.773546 7.125000 0.000000 0.000000 
17.492342 18.262517 0.257464 98.323897 -88.797478 -80.301380 -7.122822 -2.044718 -30.227920 1.082338 9.560907 29.672580 1.570895 -0.233792 4.722316 0.066600 -1.664500 -4.579400 0.845623 11.893008 -25.750732 -1.051093 -9.669594 29.843983 -3.048400 12.813186 9.325870 -3.843300 -11.948900 35.551400 2.416374 0.683353 -4.830439 -0.175848 0.244326 4.504806 1.537814 -0.984461 20.157915 1.184800 -0.772400 8.810700 -76.312633 -2.120447 16.380956 18.367861 -24.536698 -4.011128 0.662623 -1.275566 -11.717165 -7.125000 0.000000 0.000000 79.255746 -5.172449 15.533273 -18.743343 26.051255 -5.568897 0.577478 -0.495446 14.650729 7.125000 0.000000 0.000000 
17.484680 18.265037 0.283977 97.206869 -88.870867 -79.181534 -7.073357 -2.228984 -30.100791 1.067074 9.540419 29.606705 1.541161 -0.157241 4.587498 0.056500 -1.534000 -4.219500 0.777426 12.048663 -25.609845 -1.024825 -9.623973 29.709318 -3.073768 12.812005 9.187214 -3.819000 -11.915600 35.434000 2.436115 0.662355 -4.896865 -0.190524 0.230535 4.462335 1.549171 -0.962769 20.413283 1.182700 -0.760700 8.881100 -77.059945 -1.840913 16.732250 18.301111 -24.400865 -3.974883 0.668655 -1.294913 -11.375310 -7.125000 0.000000 0.000000 79.014490 -5.368272 16.535438 -18.543027 25.800477 -5.459740 0.589891 -0.521760 14.646098 7.125000 0.000000 0.000000 
17.475305 18.263726 0.309179 97.911279 -88.885446 -79.847272 -7.110508 -2.311693 -30.057100 1.052375 9.516498 29.548425 1.524463 -0.118040 4.473992 0.062800 -1.617600 -4.449900 0.678460 12.156232 -25.532333 -0.996249 -9.585183 29.570618 -3.088669 12.747558 9.146554 -3.824600 -11.923200 35.461000 2.335165 0.701537 -4.970840 -0.267465 0.239643 4.449613 1.664883 -1.019458 20.637845 1.195300 -0.771800 8.945700 -77.648445 -1.509817 17.404779 18.312710 -24.384299 -3.987035 0.679911 -1.310882 -11.520760 -7.125000 0.000000 0.000000 78.952526 -5.576347 17.248825 -18.474504 25.722119 -5.436890 0.583945 -0.518364 14.702432 7.125000 0.000000 0.000000 
17.463511 18.264634 0.330349 95.561039 -88.893074 -77.481397 -7.170298 -2.313105 -30.021835 1.032283 9.501374 29.487430 1.524920 -0.115708 4.457390 0.078200 -1.803700 -4.963500 0.581060 12.261720 -25.403936 -0.975095 -9.545586 29.451040 -3.110383 12.704572 9.053327 -3.830900 -11.932000 35.491800 2.224837 0.742544 -5.049595 -0.296519 0.254502 4.482222 1.659197 -1.095260 20.546834 1.161400 -0.799500 8.895900 -78.178031 -1.133667 18.106262 18.353814 -24.408447 -4.016625 0.696591 -1.326412 -11.565367 -7.125000 0.000000 0.000000 78.956348 -5.740299 17.602407 -18.399559 25.629325 -5.408778 0.568893 -0.530672 14.927456 7.125000 0.000000 0.000000 
17.453732 18.269069 0.349804 89.942472 -88.961390 -71.863396 -7.125213 -2.389772 -29.931245 1.006862 9.491982 29.411535 1.570881 -0.215064 4.525870 0.071600 -1.726700 -4.750900 0.529161 12.457224 -25.188466 -0.966804 -9.501882 29.364495 -3.151745 12.783766 8.760396 -3.844000 -11.949900 35.554900 2.123319 0.760352 -5.141659 -0.353419 0.266348 4.458004 1.641366 -1.169780 20.563680 1.114400 -0.822800 8.878300 -78.668268 -0.805254 18.592585 18.327451 -24.340968 -4.008462 0.709121 -1.339630 -11.350222 -7.125000 0.000000 0.000000 78.989568 -5.793953 17.843678 -18.239233 25.411880 -5.322775 0.559955 -0.563933 15.296362 7.125000 0.000000 0.000000 
17.444962 18.271791 0.370269 84.920753 -89.056254 -66.806491 -7.041987 -2.519758 -29.854812 0.985717 9.481960 29.337299 1.606790 -0.287677 4.489229 0.058000 -1.554600 -4.276400 0.550304 12.475548 -25.072040 -0.951909 -9.461281 29.280787 -3.187496 12.892183 8.622742 -3.892500 -12.016000 35.788600 2.077983 0.749377 -5.238413 -0.434140 0.265826 4.407658 1.828295 -1.185681 20.751519 1.152600 -0.807100 8.930800 -79.194795 -0.458432 19.023232 18.345212 -24.340414 -4.021741 0.718799 -1.354314 -11.300884 -7.125000 0.000000 0.000000 78.930070 -5.779805 18.293201 -18.061569 25.168489 -5.221962 0.563110 -0.597838 15.601738 7.125000 0.000000 0.000000 
